<svg width="25" height="25" viewBox="0 0 25 25" fill="none" xmlns="http://www.w3.org/2000/svg">
<path d="M22.1354 0H2.86458C1.28437 0 0 1.28437 0 2.86458V22.1354C0 23.7156 1.28437 25 2.86458 25H22.1354C23.7156 25 25 23.7156 25 22.1354V2.86458C25 1.28437 23.7156 0 22.1354 0Z" fill="#E74246"/>
<path d="M19.4906 18.0865C19.8958 18.4958 19.8917 19.1542 19.4823 19.5594C19.2802 19.7594 19.0146 19.8604 18.75 19.8604C18.4812 19.8604 18.2125 19.7573 18.0094 19.551L12.5 13.9813L6.99063 19.5521C6.7875 19.7583 6.51875 19.8604 6.25 19.8604C5.98542 19.8604 5.72083 19.7594 5.51771 19.5594C5.10834 19.1542 5.10521 18.4958 5.50938 18.0865L11.0354 12.5L5.62083 7.02605C5.21667 6.61771 5.22084 5.95834 5.62917 5.55313C6.0375 5.14896 6.69792 5.15105 7.10208 5.56146L12.5 11.0188L18.0094 5.44792C18.4135 5.03751 19.0729 5.03542 19.4823 5.43959C19.8917 5.8448 19.8948 6.50313 19.4906 6.91251L13.9646 12.5L19.4906 18.0865Z" fill="#FAFAFA"/>
</svg>
